# xmcd
#
# Track frame offsets: 
#        150
#        18097
#        36440
#        56533
#        72687
#        93251
#        110923
#        128020
#        143690
#        162449
#        187748
#        209359
#        232339
#        248916
#        268664
#
# Disc length: 3884 seconds
#
# Revision: 0
# Processed by: cddbd v1.5.2PL0 Copyright (c) Steve Scherf et al.
# Submitted via: ExactAudioCopyFreeDBPlugin 1.0
#
DISCID=dc0f2a0f
DTITLE=27A - STE20试音极品TESTCD
DYEAR=2015
DGENRE=STE
TTITLE0=致情人Ⅲ
TTITLE1=一万个舍不得
TTITLE2=全世界宣布爱你
TTITLE3=小苹果
TTITLE4=其实都没有
TTITLE5=贝加尔湖畔
TTITLE6=时间都去哪儿了
TTITLE7=黄飞红
TTITLE8=下定决心忘记你
TTITLE9=董小姐
TTITLE10=老有所依
TTITLE11=朋友的酒
TTITLE12=致青春
TTITLE13=向阳花
TTITLE14=男人再晚也别忘了回家
EXTD=
EXTT0=
EXTT1=
EXTT2=
EXTT3=
EXTT4=
EXTT5=
EXTT6=
EXTT7=
EXTT8=
EXTT9=
EXTT10=
EXTT11=
EXTT12=
EXTT13=
EXTT14=
PLAYORDER=
